<svg data-v-4462aea7="" version="1.0" xmlns="http://www.w3.org/2000/svg" xmlns:xlink="http://www.w3.org/1999/xlink" width="220px" height="64px" preserveAspectRatio="xMidYMid meet" color-interpolation-filters="sRGB" class="el-tooltip" style="margin: auto;">
 <g data-v-4462aea7="" fill="#ebc17d" class="icon-text-wrapper icon-svg-group iconsvg"><g class="iconsvg-imagesvg" transform="translate(0,6.5619964599609375)"><rect fill="#ebc17d" fill-opacity="0" stroke-width="2" x="0" y="0" width="60" height="44.789762340036" class="image-rect"></rect> <svg x="0" y="0" width="60" height="44.789762340036" filtersec="colorsb7261547622" class="image-svg-svg"><svg xmlns="http://www.w3.org/2000/svg" viewBox="0 0 656.4 490"><linearGradient id="a21366954-b133-4b6b-a227-5f24bb0626b9" gradientUnits="userSpaceOnUse" x1="277.338" y1="277.978" x2="381.988" y2="277.978"><stop offset="0" stop-color="#f0daac"></stop><stop offset=".658" stop-color="#ebc17d"></stop><stop offset="1" stop-color="#ca974d"></stop></linearGradient><path d="M370 439c13.8-27.2 14.1-57.7 9-86.9-5.1-29.1-14-68.7-20.6-97.6-6.6-28.9-9.5-47.8-.2-76.3 3.5-10.5 7.4-20.1 9.6-30.8 2.2-10.7 1.1-21.7-6.7-30.7h-62.7c-7.9 9-8.9 20-6.7 30.7s6.1 20.6 9.6 31.1c9.3 28.4 6.4 47.2-.2 76.1s-15.6 68.4-20.6 97.5c-5.1 29.1-4.7 59.6 9 86.8l80.5.1z" fill="url(#a21366954-b133-4b6b-a227-5f24bb0626b9)"></path><path fill="#ebc17d" d="M418.4 454.8H240.9l12.7-16.7h152.1z"></path><path fill="#ca974d" d="M254.9 454.8h149.5v18.1H254.9z"></path><path fill="#ebc17d" d="M434.9 490H224.5l12.6-18.1h185.1z"></path><linearGradient id="b612f3765-276f-4fa2-8260-0a0fa4f92f53" gradientUnits="userSpaceOnUse" x1="306.913" y1="74.6" x2="352.413" y2="74.6"><stop offset="0" stop-color="#f0daac"></stop><stop offset=".638" stop-color="#ca974d"></stop></linearGradient><path fill="url(#b612f3765-276f-4fa2-8260-0a0fa4f92f53)" d="M306.9 58.1h45.5v33h-45.5z"></path><linearGradient id="cb8a6342b-55db-444d-b60c-c7f8c40a8c75" gradientUnits="userSpaceOnUse" x1="295.913" y1="41.1" x2="363.413" y2="41.1"><stop offset="0" stop-color="#f0daac"></stop><stop offset="1" stop-color="#ebc17d"></stop></linearGradient><path fill="url(#cb8a6342b-55db-444d-b60c-c7f8c40a8c75)" d="M353.4 23.1h-47.5l-10 36h67.5z"></path><linearGradient id="d4c425656-075b-4d43-865e-ad35f79e00f8" gradientUnits="userSpaceOnUse" x1="296.005" y1="11.75" x2="363.322" y2="11.75"><stop offset="0" stop-color="#f0daac"></stop><stop offset="1" stop-color="#edd089"></stop></linearGradient><path d="M351.6 0h-43.8C301.3 0 296 5.3 296 11.8c0 6.5 5.3 11.8 11.8 11.8h43.8c6.5 0 11.7-5.3 11.7-11.8 0-6.5-5.2-11.8-11.7-11.8z" fill="url(#d4c425656-075b-4d43-865e-ad35f79e00f8)"></path><g><linearGradient id="e814d1928-cc09-40a0-83ba-3503c5782a19" gradientUnits="userSpaceOnUse" y1="314.549" x2="200.346" y2="314.549"><stop offset="0" stop-color="#f0daac"></stop><stop offset=".658" stop-color="#ebc17d"></stop><stop offset="1" stop-color="#ca974d"></stop></linearGradient><path fill="url(#e814d1928-cc09-40a0-83ba-3503c5782a19)" d="M164.8 341.1H35.6L0 288h200.3z"></path><path d="M100.2 117L0 288.9h200.3L100.2 117zm0 17.5l84.1 144.3H16.1l84.1-144.3z" fill="#f0daac"></path><path fill="#ebc17d" d="M46.6 340.8h107.2V353H46.6z"></path></g><g><linearGradient id="f438add81-b3e0-41fd-b1b0-49a5033dcb9b" gradientUnits="userSpaceOnUse" x1="456.102" y1="314.549" x2="656.448" y2="314.549"><stop offset="0" stop-color="#f0daac"></stop><stop offset=".658" stop-color="#ebc17d"></stop><stop offset="1" stop-color="#ca974d"></stop></linearGradient><path fill="url(#f438add81-b3e0-41fd-b1b0-49a5033dcb9b)" d="M620.9 341.1H491.7L456.1 288h200.3z"></path><path d="M556.3 117L456.1 288.9h200.3L556.3 117zm0 17.5l84.1 144.3H472.2l84.1-144.3zM502.7 340.8h107.2V353H502.7z" fill="#ebc17d"></path></g><g><linearGradient id="g75f52903-d1a6-4bdd-aed9-62364e9d365f" gradientUnits="userSpaceOnUse" x1="100.173" y1="98.535" x2="328.224" y2="98.535"><stop offset="0" stop-color="#ebc17d"></stop><stop offset="1" stop-color="#f0daac"></stop></linearGradient><path d="M328.2 116.6V66.2s-100.3 49.9-228.1 49.9c.1 0 153.8 32.9 228.1.5z" fill="url(#g75f52903-d1a6-4bdd-aed9-62364e9d365f)"></path><linearGradient id="habbaaaa9-0dc8-46ff-9356-21648ffa0caf" gradientUnits="userSpaceOnUse" x1="328.224" y1="98.535" x2="556.275" y2="98.535"><stop offset="0" stop-color="#ebc17d"></stop><stop offset="1" stop-color="#f0daac"></stop></linearGradient><path d="M328.2 116.6V66.2s100.3 49.9 228.1 49.9c0 0-153.8 32.9-228.1.5z" fill="url(#habbaaaa9-0dc8-46ff-9356-21648ffa0caf)"></path></g></svg></svg> <!----></g> <g transform="translate(67,0)"><g fill-rule="" class="tp-name iconsvg-namesvg" transform="translate(0,0)"><g hollow-target="custom"><path d="M45.90 6.60L31.30-0.20L31.80-1.25L27.30-1.25L27.30 6.95L23.35 6.95L23.35-1.25L19.25-1.25Q18.50-0.55 17.25 0.43Q16 1.40 14.20 2.53Q12.40 3.65 10.05 4.83Q7.70 6 4.75 7.05L4.75 7.05L3.45 3.35Q6.50 2.25 8.83 1.05Q11.15-0.15 12.85-1.25L12.85-1.25L3.75-1.25L3.75-5.20L23.35-5.20L23.35-7.30L27.30-7.30L27.30-5.20L46.75-5.20L46.75-1.25L38.35-1.25L47.55 3.05L45.90 6.60ZM39.15-14.65L38.05-14.10Q37.10-13.65 36.13-13.28Q35.15-12.90 34.15-12.50L34.15-12.50L45.25-10.55L44.55-6.70L25.65-9.95Q21.75-9 18.10-8.43Q14.45-7.85 11.58-7.55Q8.70-7.25 6.90-7.13Q5.10-7 4.90-7L4.90-7L4.75-10.95Q4.75-10.95 5.50-11Q6.25-11.05 7.55-11.15Q8.85-11.25 10.63-11.43Q12.40-11.60 14.50-11.90L14.50-11.90L9.65-12.75L11.90-17.50L3.50-17.50L3.50-21.45L13.75-21.45L15.05-24.15L18.60-22.50L18.10-21.45L46.60-21.45L46.60-17.50L39.15-17.50L39.15-14.65ZM15.45-15.75L25.50-14Q28.05-14.60 30.50-15.38Q32.95-16.15 35.25-17.15L35.25-17.15L35.25-17.50L16.25-17.50L15.45-15.75ZM4.75-22.60L4.75-28.75L23.25-28.75L22.40-30.05L25.70-32.15L27.90-28.75L41.55-28.75L41.55-29.45L45.50-29.45L45.50-22.80L41.55-22.80L41.55-24.85L8.70-24.85L8.70-22.60L4.75-22.60ZM54.85-17.40L52.65-20.70Q54.75-22.10 56.38-23.98Q58-25.85 59.10-27.58Q60.20-29.30 60.75-30.53Q61.30-31.75 61.30-31.75L61.30-31.75L64.95-30.30Q64.90-30.15 64.20-28.68Q63.50-27.20 62.15-25.10L62.15-25.10L62.15 7.35L58.25 7.35L58.25-20.20Q57.45-19.45 56.63-18.75Q55.80-18.05 54.85-17.40L54.85-17.40ZM85.90-1.30L85.90-26.15L89.85-26.15L89.85-1.30L85.90-1.30ZM85.65 7.10L85.65 3.20L92.25 3.20Q92.80 3.20 92.80 2.65L92.80 2.65L92.80-31L96.70-31L96.70 2.65Q96.70 4.50 95.40 5.80Q94.10 7.10 92.25 7.10L92.25 7.10L85.65 7.10ZM66.30-8.75L63.35-11.35Q65.10-13.35 66.33-15.65Q67.55-17.95 68.33-20.08Q69.10-22.20 69.53-23.95Q69.95-25.70 70.10-26.65L70.10-26.65L66.55-26.65L66.55-30.60L84.30-30.60L84.30-26.65L74.05-26.65Q73.95-25.90 73.65-24.28Q73.35-22.65 72.65-20.50L72.65-20.50L79.70-20.50L79.70-21.50L83.60-21.50L83.60-12.45L83.60-12.25Q82.90-9 81.35-6.28Q79.80-3.55 77.88-1.38Q75.95 0.80 73.88 2.45Q71.80 4.10 70.05 5.20Q68.30 6.30 67.10 6.88Q65.90 7.45 65.75 7.50L65.75 7.50L64.15 3.90Q64.20 3.90 65.25 3.38Q66.30 2.85 67.92 1.83Q69.55 0.80 71.45-0.70Q73.35-2.20 75.10-4.20L75.10-4.20L70-8.60L72.55-11.60L77.45-7.40Q78.20-8.65 78.78-10Q79.35-11.35 79.70-12.90L79.70-12.90L79.70-16.55L71.15-16.55Q70.30-14.60 69.10-12.60Q67.90-10.60 66.30-8.75L66.30-8.75ZM113.10-23.30L103.05-27.50L104.55-31.10L114.60-26.90L113.10-23.30ZM104.05 7.70L102.25 4.25Q105.15 2.75 106.75 1Q108.35-0.75 109.10-2.20Q109.85-3.65 109.97-4.65Q110.10-5.65 110.10-5.65L110.10-5.65L110.10-17.50L102.90-17.50L102.90-21.45L114.05-21.45L114.05-5.65Q114.05-5.55 114-5Q113.95-4.45 113.75-3.55Q113.55-2.65 113.08-1.48Q112.60-0.30 111.80 1L111.80 1Q112.25 1.35 112.88 1.78Q113.50 2.20 114.33 2.55Q115.15 2.90 116.13 3.15Q117.10 3.40 118.20 3.40L118.20 3.40L147.10 3.40L147.10 7.35L118.20 7.35Q116.65 7.35 115.30 7.03Q113.95 6.70 112.83 6.20Q111.70 5.70 110.80 5.13Q109.90 4.55 109.30 4.05L109.30 4.05Q108.30 5 107 5.93Q105.70 6.85 104.05 7.70L104.05 7.70ZM133.60-20.85L134.25-20.35L140.95-20.35L140.95-21.25L144.90-21.25L144.90-2.50Q144.90-0.60 143.57 0.70Q142.25 2 140.40 2L140.40 2L137.35 2L137.35-1.95L140.40-1.95Q140.95-1.95 140.95-2.50L140.95-2.50L140.95-3.90L132.85-3.90L132.85 2L128.90 2L128.90-3.90L120.60-3.90L120.60 2L116.65 2L116.65-20.35L127.85-20.35L124.25-23.10L126.70-26.20L130.25-23.45L136.30-26.85L116.55-26.85L116.55-30.75L144.90-30.75L144.90-27.10L133.60-20.85ZM128.90-16.40L120.60-16.40L120.60-14.20L128.90-14.20L128.90-16.40ZM120.60-7.80L128.90-7.80L128.90-10.30L120.60-10.30L120.60-7.80ZM132.85-7.80L140.95-7.80L140.95-10.30L132.85-10.30L132.85-7.80ZM140.95-14.20L140.95-16.40L132.85-16.40L132.85-14.20L140.95-14.20Z" transform="translate(-3.45, 32.15)"></path></g> <!----> <!----> <!----> <!----> <!----> <!----> <!----></g> <g fill-rule="" class="tp-slogan iconsvg-slogansvg" fill="#ca974d" transform="translate(0,46.85000228881836)"><!----> <rect x="0" height="1" y="5.03000020980835" width="21.43500518798828"></rect> <rect height="1" y="5.03000020980835" width="21.43500518798828" x="122.21500396728516"></rect> <g hollow-target="custom" transform="translate(24.43500518798828,0)"><path d="M6.61-9.47L6.61-9.47Q7.50-9.56 7.92-9.38L7.92-9.38Q7.92-9.33 7.88-9.23L7.88-9.23Q7.69-8.91 7.69-8.48L7.69-8.48L7.69-7.55L8.86-7.55Q9.70-7.55 10.36-7.64L10.36-7.64Q10.50-7.64 10.55-7.64L10.55-7.64L10.55-6.56Q10.50-6.56 10.41-6.56L10.41-6.56Q9.84-6.66 8.91-6.66L8.91-6.66L7.69-6.66L7.69-4.69L9.19-4.69Q10.27-4.69 11.02-4.78L11.02-4.78Q11.16-4.78 11.20-4.78L11.20-4.78L11.20-3.70Q11.16-3.70 11.02-3.70L11.02-3.70Q10.27-3.80 9.23-3.80L9.23-3.80L6.89-3.80Q7.59-3.56 7.78-3.28L7.78-3.28Q7.78-3.23 7.64-3.19L7.64-3.19Q7.27-3 7.13-2.72L7.13-2.72Q6-1.08 5.44-0.33L5.44-0.33L8.95-0.56Q8.81-0.75 8.63-1.03L8.63-1.03Q8.16-1.69 7.73-2.16L7.73-2.16L8.67-2.67Q9.70-1.45 10.97 0.38L10.97 0.38L9.84 0.94Q9.66 0.56 9.38 0.09L9.38 0.09Q6.66 0.23 4.45 0.75L4.45 0.75L3.94-0.05Q5.39-1.03 6.38-3.80L6.38-3.80L5.58-3.80Q4.50-3.80 3.80-3.70L3.80-3.70Q3.70-3.70 3.66-3.70L3.66-3.70L3.66-4.73Q3.70-4.73 3.84-4.73L3.84-4.73Q4.41-4.64 5.53-4.64L5.53-4.64L6.75-4.64L6.75-6.61L5.81-6.61Q4.97-6.61 4.45-6.52L4.45-6.52Q4.36-6.52 4.36-6.52L4.36-6.52L4.36-7.59Q4.41-7.59 4.55-7.59L4.55-7.59Q5.16-7.50 5.81-7.50L5.81-7.50L6.75-7.50L6.75-8.39Q6.75-8.95 6.61-9.42L6.61-9.42Q6.61-9.47 6.61-9.47ZM1.50-8.20L2.20-8.95Q3.56-7.97 4.03-7.50L4.03-7.50L3.23-6.66Q2.20-7.78 1.50-8.20L1.50-8.20ZM0.66-5.34L1.22-6.19Q1.31-6.14 1.55-6.05L1.55-6.05Q2.53-5.58 3.23-5.16L3.23-5.16L2.63-4.17Q1.88-4.88 0.66-5.34L0.66-5.34ZM2.48-3.52L2.48-3.52L3.42-2.95Q2.67-0.94 2.25 0.47L2.25 0.47Q2.16 0.84 2.11 0.84L2.11 0.84Q1.97 0.89 0.98 0.14L0.98 0.14Q1.92-1.03 2.48-3.52ZM14.77-9.70L14.77-9.70Q14.95-9.61 15.23-9.47L15.23-9.47Q15.94-9.09 15.89-9.05L15.89-9.05Q15.89-8.95 15.75-8.86L15.75-8.86Q15.38-8.67 15.05-8.25L15.05-8.25Q14.44-7.45 13.22-6.09L13.22-6.09Q12.98-6.42 12.38-6.84L12.38-6.84Q14.06-7.97 14.77-9.70ZM18.56-9.66L18.56-9.66Q19.78-9.66 19.83-9.52L19.83-9.52Q19.83-9.47 19.78-9.38L19.78-9.38Q19.55-9.05 19.55-8.39L19.55-8.39L21.19-8.39Q22.03-8.39 22.36-8.48L22.36-8.48Q22.27-7.92 22.27-7.59L22.27-7.59L22.27-6.61Q23.02-6.61 23.34-6.66L23.34-6.66L23.34-5.81Q23.11-5.86 22.27-5.86L22.27-5.86L22.27-4.88Q22.27-4.50 22.31-4.13L22.31-4.13Q22.31-4.03 22.31-3.98L22.31-3.98Q21.84-4.08 21.33-4.08L21.33-4.08L19.55-4.08L19.55-3.19L20.77-3.19Q22.64-3.23 22.64-3.23L22.64-3.23L22.64-2.39Q22.13-2.44 20.77-2.44L20.77-2.44L19.55-2.44L19.55-1.41L21.05-1.41Q22.55-1.41 23.11-1.45L23.11-1.45L23.11-0.61Q22.64-0.66 21.09-0.66L21.09-0.66L19.55-0.66L19.55-0.33Q19.55 0.70 19.59 1.13L19.59 1.13L18.56 1.13Q18.61 0.66 18.61-0.28L18.61-0.28L18.61-0.66L17.58-0.66Q16.08-0.66 15.42-0.61L15.42-0.61Q15.38-0.61 15.38-0.61L15.38-0.61L15.38-1.45Q15.89-1.41 17.53-1.41L17.53-1.41L18.61-1.41L18.61-2.44L17.81-2.44Q16.55-2.44 15.89-2.39L15.89-2.39L15.89-3.23Q15.89-3.23 15.94-3.23L15.94-3.23Q16.50-3.19 17.81-3.19L17.81-3.19L18.61-3.19L18.61-4.08L17.86-4.08Q16.73-4.08 16.13-4.03L16.13-4.03L16.13-4.88Q16.88-4.83 17.81-4.83L17.81-4.83L18.61-4.83L18.61-5.86L17.91-5.86Q16.22-5.86 15.94-5.81L15.94-5.81L15.94-6.66Q16.27-6.61 18-6.61L18-6.61L18.61-6.61L18.61-7.69L17.86-7.69Q16.64-7.69 16.13-7.64L16.13-7.64L16.13-8.44Q16.55-8.39 17.86-8.39L17.86-8.39L18.61-8.39Q18.61-8.77 18.56-9.28L18.56-9.28Q18.56-9.61 18.56-9.66ZM21.38-7.69L19.55-7.69L19.55-6.61L21.38-6.61L21.38-7.69ZM14.77-7.03L14.77-7.03Q14.86-6.98 15-6.89L15-6.89Q15.89-6.42 15.84-6.38L15.84-6.38Q15.84-6.33 15.70-6.23L15.70-6.23Q15.33-5.91 14.91-5.25L14.91-5.25L14.91-0.89Q14.91 0.56 14.95 1.03L14.95 1.03L13.97 1.03Q14.02 0.47 14.02-0.84L14.02-0.84L14.02-4.08Q13.41-3.09 12.89-2.63L12.89-2.63Q12.75-3.33 12.33-3.61L12.33-3.61Q13.88-4.88 14.77-7.03ZM21.38-5.86L19.55-5.86L19.55-4.83L21.38-4.83L21.38-5.86ZM29.30-9.56L30.47-9.75Q30.75-9.14 30.80-8.63L30.80-8.63L33.52-8.63Q34.50-8.63 34.88-8.72L34.88-8.72Q34.78-8.48 34.78-7.88L34.78-7.88Q34.78-7.36 34.88-7.08L34.88-7.08L33.70-7.08Q33.70-7.13 33.75-7.22L33.75-7.22Q33.80-7.59 33.80-7.92L33.80-7.92L29.02-7.92Q30-7.55 30.09-7.36L30.09-7.36Q30.09-7.31 30-7.27L30-7.27Q29.58-7.13 29.25-6.70L29.25-6.70L33.56-6.70Q34.41-6.70 34.92-6.80L34.92-6.80L34.92-5.86Q34.88-5.86 34.78-5.86L34.78-5.86Q34.27-5.95 33.56-5.95L33.56-5.95L32.91-5.95Q32.58-5.44 31.59-4.64L31.59-4.64Q32.53-4.41 34.64-3.61L34.64-3.61Q34.78-3.56 34.83-3.56L34.83-3.56Q34.45-3.19 34.13-2.63L34.13-2.63Q32.86-3.38 30.80-4.08L30.80-4.08Q29.02-3.23 25.88-2.77L25.88-2.77Q25.73-3.38 25.31-3.84L25.31-3.84Q27.47-3.75 29.67-4.41L29.67-4.41Q29.58-4.41 29.39-4.45L29.39-4.45Q27.52-4.88 26.67-4.97L26.67-4.97Q27.23-5.44 27.66-5.95L27.66-5.95L26.63-5.95Q26.16-5.95 25.50-5.91L25.50-5.91Q25.22-5.86 25.13-5.86L25.13-5.86L25.13-6.80Q25.83-6.70 26.58-6.70L26.58-6.70L28.17-6.70Q28.69-7.31 28.88-7.92L28.88-7.92L26.25-7.92Q26.25-7.31 26.34-7.08L26.34-7.08L25.17-7.08Q25.27-7.41 25.27-7.88L25.27-7.88Q25.27-8.39 25.17-8.72L25.17-8.72Q25.22-8.72 25.31-8.72L25.31-8.72Q25.97-8.63 26.48-8.63L26.48-8.63L29.81-8.63Q29.67-9.14 29.30-9.56L29.30-9.56ZM31.83-5.95L31.83-5.95L28.73-5.95Q28.64-5.86 28.45-5.72L28.45-5.72Q28.27-5.53 28.17-5.44L28.17-5.44Q28.73-5.34 30-5.06L30-5.06Q30.42-4.97 30.61-4.92L30.61-4.92Q31.41-5.48 31.83-5.95ZM29.44-3.38L29.44-3.38Q30.66-3.38 30.61-3.28L30.61-3.28Q30.61-3.23 30.56-3.14L30.56-3.14Q30.42-2.86 30.42-2.44L30.42-2.44L33.33-2.44Q34.45-2.44 35.20-2.53L35.20-2.53L35.20-1.59Q34.59-1.69 33.33-1.69L33.33-1.69L31.17-1.69Q32.77-0.23 35.39-0.09L35.39-0.09Q34.73 0.23 34.45 0.84L34.45 0.84Q31.59 0.05 30.42-1.59L30.42-1.59L30.42 0Q30.42 0.66 30.52 1.22L30.52 1.22L29.44 1.22Q29.48 0.84 29.48-0.05L29.48-0.05L29.48-1.59Q28.08 0.05 25.41 1.08L25.41 1.08Q25.17 0.56 24.66 0.19L24.66 0.19Q27.05-0.28 28.69-1.69L28.69-1.69L26.48-1.69Q25.50-1.69 24.80-1.59L24.80-1.59L24.80-2.53Q25.45-2.44 26.48-2.44L26.48-2.44L29.48-2.44Q29.48-3.05 29.44-3.38ZM39.75-9.14L39.75-9.14Q39.75-9.05 39.61-8.95L39.61-8.95Q39.47-8.81 39.38-8.63L39.38-8.63Q39.19-8.20 38.86-7.50L38.86-7.50Q38.72-7.31 38.67-7.17L38.67-7.17L38.67-0.98Q38.67 0.28 38.72 0.84L38.72 0.84L37.78 0.84Q37.88 0.05 37.88-0.98L37.88-0.98L37.88-5.77Q37.45-4.97 36.84-4.13L36.84-4.13Q36.61-4.78 36.33-5.20L36.33-5.20Q37.78-6.56 38.58-9.66L38.58-9.66Q39.75-9.33 39.75-9.14ZM45.80-9.38L45.80-9.38Q47.06-9.28 47.06-9.14L47.06-9.14Q47.06-9.05 46.97-8.86L46.97-8.86Q46.83-8.58 46.83-8.39L46.83-8.39L46.83 0.23Q46.73 0.98 45.05 1.08L45.05 1.08Q44.95 0.56 44.53 0L44.53 0Q45.84 0.09 45.84-0.42L45.84-0.42L45.84-8.58Q45.84-8.81 45.80-9.14L45.80-9.14Q45.80-9.28 45.80-9.38ZM39.66-7.88L39.66-8.77Q39.84-8.77 40.31-8.72L40.31-8.72Q40.64-8.72 40.73-8.72L40.73-8.72L42.05-8.72Q42.52-8.72 43.45-8.81L43.45-8.81L43.45-7.88Q43.27-7.92 42-7.92L42-7.92L41.77-7.92Q41.72-7.41 41.39-6.38L41.39-6.38L43.41-6.38Q43.13-1.13 39.98 0.80L39.98 0.80Q39.61 0.38 38.86 0.09L38.86 0.09Q40.55-0.47 41.67-2.34L41.67-2.34Q41.11-2.86 40.36-3.38L40.36-3.38L41.16-3.98Q41.67-3.38 41.95-3.19L41.95-3.19Q42.23-4.08 42.33-5.58L42.33-5.58L41.20-5.58Q40.59-4.13 39.84-2.86L39.84-2.86Q39.47-3.14 38.77-3.23L38.77-3.23Q40.31-4.78 40.83-7.92L40.83-7.92L40.69-7.92Q40.17-7.92 39.66-7.88L39.66-7.88ZM43.97-7.73L43.97-7.73Q45.05-7.73 45.14-7.55L45.14-7.55Q45.14-7.45 45.05-7.31L45.05-7.31Q44.91-7.03 44.91-6.56L44.91-6.56L44.91-3.42Q44.91-2.58 44.95-1.59L44.95-1.59L43.92-1.59Q44.02-2.11 44.02-3.47L44.02-3.47L44.02-6.61Q44.02-7.13 43.97-7.73ZM50.11-9.75L50.11-9.75Q51.52-9.70 51.38-9.52L51.38-9.52Q51.38-9.47 51.28-9.33L51.28-9.33Q51.05-9 51.05-8.58L51.05-8.58L51.05-7.27L51.42-7.27Q51.70-7.27 52.17-7.31L52.17-7.31Q52.36-7.36 52.41-7.36L52.41-7.36L52.41-6.33Q51.98-6.42 51.47-6.42L51.47-6.42L51.05-6.42L51.05-4.27Q51.61-4.50 52.17-4.88L52.17-4.88L52.17-3.84Q51.42-3.52 51.05-3.33L51.05-3.33L51.05-0.52Q51.19 1.08 49.13 1.08L49.13 1.08Q48.98 0.33 48.80 0L48.80 0Q50.39 0.19 50.20-0.75L50.20-0.75L50.20-3Q50.25-2.95 49.59-2.72L49.59-2.72Q49.08-2.48 48.75-2.34L48.75-2.34L48.61-3.47Q49.03-3.56 50.20-3.98L50.20-3.98L50.20-6.42L49.73-6.42Q48.89-6.42 48.61-6.33L48.61-6.33L48.61-7.36Q48.70-7.36 48.89-7.31L48.89-7.31Q49.41-7.27 49.73-7.27L49.73-7.27L50.20-7.27L50.20-8.58Q50.20-8.91 50.11-9.52L50.11-9.52Q50.11-9.70 50.11-9.75ZM55.45-9.05L56.34-9.61Q56.81-9.09 57.28-8.25L57.28-8.25L56.34-7.78Q56.02-8.58 55.45-9.05L55.45-9.05ZM53.77-9.56L53.77-9.56Q55.03-9.33 55.08-9.09L55.08-9.09Q55.08-9 54.94-8.86L54.94-8.86Q54.61-8.58 54.42-8.25L54.42-8.25Q54.23-7.92 54.05-7.45L54.05-7.45L57.47-7.45Q58.31-7.45 59.06-7.59L59.06-7.59L59.06-6.52Q58.97-6.52 58.59-6.56L58.59-6.56Q57.84-6.61 57.42-6.61L57.42-6.61L56.77-6.61L56.77-5.30L57.28-5.30Q58.13-5.30 58.73-5.39L58.73-5.39L58.73-4.31Q58.03-4.41 57.23-4.41L57.23-4.41L56.77-4.41L56.77-3.09L57.19-3.09Q58.03-3.09 58.73-3.19L58.73-3.19L58.73-2.11Q57.98-2.20 57.19-2.20L57.19-2.20L56.77-2.20L56.77-0.84L57.75-0.84Q58.92-0.84 59.34-0.94L59.34-0.94Q59.34-0.94 59.39-0.94L59.39-0.94L59.39 0.05Q59.30 0.05 59.06 0L59.06 0Q58.55 0 57.75 0L57.75 0L54.05 0Q54.05 0.42 54.14 1.08L54.14 1.08Q54.14 1.03 54.14 1.17L54.14 1.17L53.06 1.17Q53.06 1.13 53.06 1.08L53.06 1.08Q53.16 0.47 53.16 0L53.16 0L53.16-5.81Q53.16-5.81 53.11-5.72L53.11-5.72Q52.83-5.34 52.45-4.78L52.45-4.78Q51.84-5.16 51.56-5.20L51.56-5.20Q53.16-6.56 53.77-9.56ZM55.88-5.30L55.88-6.61L54.05-6.61L54.05-5.30L55.88-5.30ZM55.88-4.41L54.05-4.41L54.05-3.09L55.88-3.09L55.88-4.41ZM55.88-0.84L55.88-2.20L54.05-2.20L54.05-0.84L55.88-0.84ZM66.89-9.70L66.89-9.70Q68.02-9.70 68.11-9.61L68.11-9.61Q68.11-9.56 68.11-9.47L68.11-9.47Q67.97-9.19 67.97-8.81L67.97-8.81L67.97-8.58L69.56-8.58Q70.64-8.58 71.02-8.67L71.02-8.67L71.02-7.73Q70.55-7.83 69.56-7.83L69.56-7.83L67.97-7.83Q67.97-7.31 68.06-6.89L68.06-6.89L66.89-6.89Q66.98-7.08 66.98-7.83L66.98-7.83L64.45-7.83Q64.45-7.50 64.55-7.13L64.55-7.13Q64.59-6.98 64.59-6.89L64.59-6.89L63.42-6.89L63.52-7.83L62.34-7.83Q61.41-7.83 60.75-7.73L60.75-7.73L60.75-8.67Q61.36-8.58 62.34-8.58L62.34-8.58L63.52-8.58L63.52-8.81Q63.52-9.33 63.42-9.66L63.42-9.66Q64.50-9.56 64.64-9.52L64.64-9.52Q64.64-9.47 64.59-9.42L64.59-9.42Q64.45-9.23 64.45-8.86L64.45-8.86L64.45-8.58L66.98-8.58L66.98-8.86Q66.98-9.56 66.89-9.70ZM64.92-7.36L64.92-7.36Q65.11-7.31 65.48-7.17L65.48-7.17Q66.14-7.03 66.09-6.98L66.09-6.98Q66.09-6.94 66-6.84L66-6.84Q65.72-6.70 65.53-6.38L65.53-6.38L69.38-6.38Q70.45-6.38 70.97-6.47L70.97-6.47L70.97-5.53Q70.45-5.63 69.47-5.63L69.47-5.63L65.06-5.63Q64.78-5.25 64.22-4.59L64.22-4.59Q63.98-4.27 63.84-4.13L63.84-4.13L63.84-0.28Q63.84 0.80 63.94 1.03L63.94 1.03L62.77 1.03Q62.86 0.66 62.86-0.33L62.86-0.33L62.86-3.23Q62.34-2.53 61.27-1.64L61.27-1.64Q60.89-2.06 60.47-2.44L60.47-2.44Q62.39-3.47 63.98-5.63L63.98-5.63L62.30-5.63Q61.55-5.63 60.89-5.53L60.89-5.53Q60.94-5.53 60.80-5.53L60.80-5.53L60.80-6.47Q60.80-6.47 60.84-6.47L60.84-6.47Q61.50-6.38 62.30-6.38L62.30-6.38L64.45-6.38Q64.83-7.08 64.92-7.36ZM70.78-4.73L70.78-4.73L70.78-3.75Q70.08-3.80 69.70-3.56L69.70-3.56Q69.33-3.42 68.44-2.86L68.44-2.86L68.44-2.53L69.80-2.53Q70.92-2.53 71.20-2.63L71.20-2.63L71.20-1.69Q70.64-1.78 69.80-1.78L69.80-1.78L68.44-1.78L68.44 0.38Q68.39 0.94 66.61 1.13L66.61 1.13Q66.52 0.52 66.14-0.05L66.14-0.05Q67.59 0.19 67.50-0.42L67.50-0.42L67.50-1.78L65.81-1.78Q64.73-1.78 64.36-1.69L64.36-1.69L64.36-2.63Q64.83-2.53 65.81-2.53L65.81-2.53L67.50-2.53L67.50-3.19Q68.30-3.52 68.86-3.89L68.86-3.89L66.23-3.89Q65.63-3.89 65.02-3.80L65.02-3.80Q64.88-3.80 64.83-3.80L64.83-3.80L64.83-4.73Q64.97-4.73 65.30-4.69L65.30-4.69Q65.81-4.64 66.19-4.64L66.19-4.64L69.33-4.64Q70.22-4.64 70.78-4.73ZM81.80-9.23L81.80-9.23Q81.84-9.14 81.98-8.95L81.98-8.95Q82.55-8.11 82.45-8.11L82.45-8.11Q81.19-8.11 77.72-7.78L77.72-7.78Q78.42-7.50 78.56-7.36L78.56-7.36Q78.56-7.31 78.28-7.22L78.28-7.22Q77.86-7.08 77.63-6.89L77.63-6.89Q77.34-6.70 76.55-6.19L76.55-6.19Q76.03-5.86 75.70-5.67L75.70-5.67L78.80-5.86Q79.92-6.70 80.44-7.27L80.44-7.27Q81.33-6.70 81.47-6.52L81.47-6.52Q81.47-6.47 81.28-6.38L81.28-6.38Q80.86-6.19 80.48-5.95L80.48-5.95Q80.44-5.91 80.30-5.81L80.30-5.81Q77.91-4.27 75.98-3.52L75.98-3.52L80.81-3.70Q79.78-4.41 79.73-4.41L79.73-4.41L80.48-5.11Q82.17-3.84 83.02-3L83.02-3L82.22-2.25Q81.94-2.67 81.52-3L81.52-3L78.75-2.86L78.75-0.14Q79.13 0.80 76.88 0.89L76.88 0.89Q76.78 0.33 76.59-0.05L76.59-0.05Q76.55-0.14 76.55-0.14L76.55-0.14Q77.91 0 77.77-0.61L77.77-0.61L77.77-2.81L75.61-2.72Q75.47-2.72 75.23-2.67L75.23-2.67Q74.48-2.63 74.11-2.53L74.11-2.53L73.78-3.56Q74.86-3.61 77.72-5.16L77.72-5.16Q75.38-5.02 74.77-4.78L74.77-4.78L74.20-5.77Q75.84-6.47 77.16-7.73L77.16-7.73L73.92-7.36Q73.83-7.69 73.64-8.06L73.64-8.06Q73.50-8.30 73.41-8.44L73.41-8.44Q77.77-8.44 81.80-9.23ZM79.78-1.50L80.53-2.20Q81.09-1.83 82.55-0.70L82.55-0.70Q82.88-0.42 83.02-0.33L83.02-0.33L82.13 0.42Q80.91-0.84 79.78-1.50L79.78-1.50ZM75.61-2.20L75.61-2.20L76.50-1.59Q74.86 0 74.20 0.47L74.20 0.47Q73.83 0 73.27-0.14L73.27-0.14Q74.63-1.03 75.61-2.20ZM91.13-9.61L91.97-9.84Q92.34-8.95 92.53-8.34L92.53-8.34L91.69-8.11Q91.64-8.72 91.13-9.61L91.13-9.61ZM86.39-9.52L86.39-9.52Q86.58-9.42 86.91-9.33L86.91-9.33Q87.56-9.05 87.56-8.95L87.56-8.95Q87.61-8.86 87.28-8.58L87.28-8.58Q87.09-8.44 87.05-8.39L87.05-8.39Q86.48-7.55 85.55-5.95L85.55-5.95L87.33-6L87.84-7.03Q88.03-6.94 88.36-6.75L88.36-6.75Q88.92-6.52 88.88-6.42L88.88-6.42Q88.88-6.38 88.73-6.28L88.73-6.28Q88.45-6.05 88.27-5.77L88.27-5.77Q87.84-5.11 86.67-3.56L86.67-3.56Q86.25-3.09 86.06-2.81L86.06-2.81Q86.39-2.91 87-3L87-3Q87.98-3.23 88.69-3.38L88.69-3.38L88.50-2.44Q86.34-2.16 85.13-1.78L85.13-1.78L84.75-2.86Q85.78-3.52 86.91-5.30L86.91-5.30L85.78-5.25Q85.31-5.20 84.84-5.06L84.84-5.06L84.47-6.05Q85.55-7.13 86.39-9.52ZM95.30-8.02L95.30-8.02L95.30-7.03Q94.69-7.13 93.98-7.13L93.98-7.13L90.05-7.13Q89.44-7.13 88.69-7.03L88.69-7.03L88.69-8.02Q89.34-7.92 90.14-7.92L90.14-7.92L93.98-7.92Q94.50-7.92 95.30-8.02ZM88.88-1.36L88.88-1.36L88.78-0.38Q86.39-0.05 84.80 0.38L84.80 0.38L84.52-0.56Q86.34-0.75 88.88-1.36ZM90.98-7.03L90.98-7.03Q91.31-6.80 91.64-6.61L91.64-6.61Q91.83-6.52 91.92-6.47L91.92-6.47Q91.92-6.42 91.73-6.28L91.73-6.28Q90.89-5.58 89.95-4.55L89.95-4.55L93.38-4.69Q92.86-5.44 92.53-5.67L92.53-5.67L93.33-6.23Q93.42-6.09 93.80-5.67L93.80-5.67Q94.97-4.22 95.20-3.89L95.20-3.89L94.27-3.23Q94.22-3.56 93.89-3.98L93.89-3.98L92.81-3.98L92.81-0.33Q92.77 0.09 93.28 0.05L93.28 0.05L93.75 0.05Q94.36 0.19 94.45-1.03L94.45-1.03Q94.73-0.66 95.44-0.42L95.44-0.42Q95.16 0.98 94.27 0.94L94.27 0.94L92.72 0.94Q91.97 0.94 91.97 0.05L91.97 0.05L91.97-3.89L91.13-3.89Q91.13-1.50 90.66-0.56L90.66-0.56Q90.33 0.33 88.92 1.22L88.92 1.22Q88.59 0.94 87.98 0.66L87.98 0.66Q87.84 0.56 87.84 0.56L87.84 0.56Q89.39 0 89.77-0.80L89.77-0.80Q90.23-1.59 90.23-3.80L90.23-3.80Q90.19-3.80 90.09-3.80L90.09-3.80Q89.77-3.75 89.11-3.61L89.11-3.61L88.73-4.64Q89.48-5.02 90.98-7.03Z" transform="translate(-0.65625, 9.84375)"></path></g></g></g></g></svg>