<svg id="logo-svg" version="1.0" xmlns="http://www.w3.org/2000/svg" xmlns:xlink="http://www.w3.org/1999/xlink" width="200" height="80"  viewBox="0 0 200 80" preserveAspectRatio="xMidYMid meet" color-interpolation-filters="sRGB"  style="margin: auto;"><g data-v-4462aea7="" fill="#020202"  transform="translate(0, 0)"><g transform="translate(30,18)"><g><rect stroke-width="2" x="0" y="0" width="164.052001953125" height="66.40874862670898" fill-opacity="0"></rect> <!----> <!----> </g> <g transform="translate(0, 0)"><g fill-rule="evenodd" transform="translate(0,0)"><g hollow-target="custom"><path d="M34.70-0.20Q34.55-1.30 34.90-1.25L34.90-1.25Q35.25-1.25 36.10-0.40L36.10-0.40Q36.90 0.50 38.25 1.30L38.25 1.30Q39.25 1.85 39.65 2.38Q40.05 2.90 40.50 4L40.50 4Q41 5.50 40.55 5.40L40.55 5.40Q40.35 5.25 39.85 5.55L39.85 5.55Q39.25 5.90 37.05 4.80L37.05 4.80Q36.70 4.65 36.10 3.15Q35.50 1.65 35.15 1.25Q34.80 0.85 34.70-0.20L34.70-0.20ZM23.90-26.60Q24.60-27.70 25.95-26L25.95-26L26.55-25.10L26.05-23.55Q25.50-22.05 25.30-21.55L25.30-21.55Q25.15-21.20 25.65-21.20L25.65-21.20Q26-21.20 27.05-21.25L27.05-21.25Q28.85-21.45 29.35-22.05L29.35-22.05Q29.80-22.60 30.18-22.63Q30.55-22.65 31.60-22.10L31.60-22.10Q32.65-21.55 34.10-21.70L34.10-21.70Q35.60-21.80 36.65-21.68Q37.70-21.55 37.70-21.15Q37.70-20.75 36.58-20.48Q35.45-20.20 34.45-20.35L34.45-20.35Q32.30-20.65 32.30-19.60L32.30-19.60Q32.30-18.90 31.93-17.85Q31.55-16.80 31.25-16.55L31.25-16.55Q30.85-16.20 30.20-15.15L30.20-15.15Q29.70-14.40 29.68-14.23Q29.65-14.05 30-13.85L30-13.85Q30.50-13.65 31.33-13.88Q32.15-14.10 32.65-13.63Q33.15-13.15 34.80-12.65L34.80-12.65Q36.20-12.30 36.63-12.03Q37.05-11.75 37-11.30L37-11.30Q36.90-10.85 35.33-10.88Q33.75-10.90 32.50-11.45L32.50-11.45Q31.20-12 29.55-11.90L29.55-11.90L27.95-11.75L28.75-11.40Q29.55-11.05 30.05-11.05L30.05-11.05Q30.40-11.05 30.48-10.83Q30.55-10.60 30.55-9.85L30.55-9.85Q30.50-9.45 30.68-9.40Q30.85-9.35 31.55-9.45L31.55-9.45Q38.90-10.40 41.45-10.20L41.45-10.20Q46.10-9.90 46.30-9.55L46.30-9.55Q46.45-9.30 46.85-9.30L46.85-9.30Q47.40-9.30 47.45-8.95Q47.50-8.60 46.95-8.15L46.95-8.15Q46.35-7.75 44.50-7.85Q42.65-7.95 42.30-8.25L42.30-8.25Q41.35-9 35.95-8.45L35.95-8.45Q32.15-8.05 31.20-7.80L31.20-7.80L30.20-7.70L30.15-6.30Q30.05-4.90 29.80 0.80L29.80 0.80Q29.55 4.65 29.43 5.63Q29.30 6.60 28.95 6.90L28.95 6.90Q28.45 7.30 28.10 7.30L28.10 7.30Q27.70 7.30 26.15 6.33Q24.60 5.35 24.05 4.70L24.05 4.70Q23.50 4 22.58 3.30Q21.65 2.60 21.05 2.40L21.05 2.40Q20.55 2.25 19.30 3.65L19.30 3.65Q18.45 4.50 18.18 4.70Q17.90 4.90 17.65 4.65L17.65 4.65Q17.40 4.30 17.10 4.30L17.10 4.30Q16.90 4.30 16.38 3.68Q15.85 3.05 15.48 2.38Q15.10 1.70 15.20 1.65L15.20 1.65Q15.55 1.55 16.55 1.28Q17.55 1 18.82 0.03Q20.10-0.95 22-2.18Q23.90-3.40 24.25-3.60L24.25-3.60Q24.75-3.75 24.90-3.55L24.90-3.55Q24.95-3.35 24.33-2.55Q23.70-1.75 23.20-1.30L23.20-1.30Q22.80-1.05 22.28-0.18Q21.75 0.70 21.75 1.05L21.75 1.05Q21.75 1.50 23.05 1.90L23.05 1.90Q24.30 2.25 24.78 2.25Q25.25 2.25 25.70 1.85L25.70 1.85Q26.05 1.55 26.18 0.85Q26.30 0.15 26.35-2.35L26.35-2.35Q26.55-6.15 26.65-6.35Q26.75-6.55 26.40-6.70L26.40-6.70Q25.85-6.90 18.10-4.25L18.10-4.25Q13.05-2.55 10.93-2.02Q8.80-1.50 7.25-1.50L7.25-1.50Q3.90-1.50 2.95-2.90L2.95-2.90Q2.55-3.50 2.55-3.73Q2.55-3.95 4.23-4Q5.90-4.05 6.13-4.17Q6.35-4.30 9.05-4.65L9.05-4.65Q12.85-5.15 16.40-6.15L16.40-6.15Q20.80-7.35 25.10-8.15L25.10-8.15L26.65-8.45L26.65-10.15Q26.65-11.80 26.43-11.80Q26.20-11.80 24.98-11.28Q23.75-10.75 21.60-10.75L21.60-10.75Q18.15-10.70 18-11.25L18-11.25Q17.90-11.55 19.53-12.30Q21.15-13.05 21.80-13.05L21.80-13.05Q23.25-13.05 21.85-14.35L21.85-14.35Q20.95-15.15 20.80-16L20.80-16Q20.70-16.80 20.40-16.82Q20.10-16.85 19.05-16.45L19.05-16.45Q16.70-15.30 14.65-15.45L14.65-15.45Q13.70-15.50 12.93-16.15Q12.15-16.80 12.15-17.50L12.15-17.50L12.15-18.25L13.70-18.25Q15.15-18.25 18.23-18.98Q21.30-19.70 21.65-20.05L21.65-20.05Q22-20.55 23.15-24.40L23.15-24.40Q23.55-26 23.90-26.60L23.90-26.60ZM29-19.65Q29-20.55 26.65-19.80L26.65-19.80Q25.80-19.50 24.70-18.90Q23.60-18.30 23.40-18.05L23.40-18.05Q22.80-17.05 24.25-15.75L24.25-15.75Q25.25-14.80 25.43-14.80Q25.60-14.80 27.05-16.45L27.05-16.45Q29-18.45 29-19.65L29-19.65ZM14.50-30.35Q14.65-30.85 15.23-30.68Q15.80-30.50 16.35-29.80L16.35-29.80Q17.10-28.80 17.43-26.93Q17.75-25.05 18.10-23.65L18.10-23.65Q18.95-20.65 18.35-20.65L18.35-20.65Q17.90-20.65 16.85-21.28Q15.80-21.90 15.50-22.40L15.50-22.40Q15-23 14.88-25.15Q14.75-27.30 14.53-28.63Q14.30-29.95 14.50-30.35L14.50-30.35ZM23.55-36.85Q23.85-37.55 24.95-36.65L24.95-36.65Q25.70-36.05 25.95-36.05L25.95-36.05Q26.20-36.05 26.88-34.93Q27.55-33.80 27.70-33L27.70-33Q27.80-32.40 27.98-32.23Q28.15-32.05 28.75-32.05L28.75-32.05Q29.50-31.95 31.60-32.45Q33.70-32.95 34.95-33.15L34.95-33.15L36.30-33.30L37.70-31.90L39.15-30.55L38.25-29.50Q37.35-28.45 36.85-27.65L36.85-27.65Q36-26.25 34.05-25.25L34.05-25.25Q33.50-24.90 33.15-25.20L33.15-25.20Q32.45-25.80 33.90-29.15L33.90-29.15Q34.80-31.15 34.80-31.40L34.80-31.40Q34.80-32.05 33.30-31.25L33.30-31.25Q33-31.15 32.70-30.90L32.70-30.90Q32.10-30.45 30.20-29.85Q28.30-29.25 26.80-28.50Q25.30-27.75 24.33-27.58Q23.35-27.40 22.48-27.05Q21.60-26.70 20.70-26.80L20.70-26.80Q20-26.85 18.98-27.43Q17.95-28 17.95-28.35L17.95-28.35Q17.95-28.70 17.80-29.05L17.80-29.05Q17.65-29.30 17.82-29.38Q18-29.45 18.60-29.45L18.60-29.45Q19.40-29.45 21.98-30.08Q24.55-30.70 24.80-30.90L24.80-30.90Q25-31.15 24.30-33L24.30-33Q23.25-36.05 23.55-36.85L23.55-36.85ZM60.80-18.90Q61.05-19.15 61.35-19.13Q61.65-19.10 61.80-18.75L61.80-18.75Q61.95-18.40 61.67-16.23Q61.40-14.05 61.67-12.18Q61.95-10.30 61.98-6.85Q62-3.40 62.25-2.15Q62.50-0.90 62.55 0.15L62.55 0.15Q62.55 0.80 62.50 0.98Q62.45 1.15 62.10 1.05L62.10 1.05Q61.60 0.90 60.40-0.20L60.40-0.20L59.30-1.30L59.35-5.10Q59.55-16.80 60.80-18.90L60.80-18.90ZM84-16.45Q84.35-17.30 84.53-18.80Q84.70-20.30 85.22-21.25Q85.75-22.20 86.28-22.20Q86.80-22.20 87.35-21.78Q87.90-21.35 87.90-21Q87.90-20.65 88.43-20.30Q88.95-19.95 88.75-19.40L88.75-19.40Q88.45-18.55 88.75-16.35L88.75-16.35Q88.90-15.25 88.63-14.20Q88.35-13.15 87.75-12.95L87.75-12.95Q86.80-12.50 85.40-13.85L85.40-13.85Q84.55-14.60 84.35-14.60L84.35-14.60Q84-14.60 83.85-15.20Q83.70-15.80 84-16.45L84-16.45ZM79.15-30.60Q79.95-30.95 80.17-30.95Q80.40-30.95 81.40-30.60L81.40-30.60Q82.60-30.15 82.60-29.95L82.60-29.95Q82.60-29.30 81.90-28.58Q81.20-27.85 80.30-27.45L80.30-27.45Q79.15-26.95 77.63-25.55Q76.10-24.15 76.10-23.65L76.10-23.65Q76.10-23.15 75.85-23.05Q75.60-22.95 74.65-20.48Q73.70-18 72.85-16.55Q72-15.10 72.13-14.98Q72.25-14.85 74.35-15.75L74.35-15.75Q76.35-16.50 76.70-17.20Q77.05-17.90 76-18.90L76-18.90Q75.45-19.40 75.42-19.60Q75.40-19.80 75.65-20.20L75.65-20.20Q76.15-20.85 77.05-21.03Q77.95-21.20 78.60-21.35L78.60-21.35Q79.15-21.55 80-21.30Q80.85-21.05 81.35-20.50L81.35-20.50L81.90-20L81-19.05Q80.05-18.05 80.05-17.78Q80.05-17.50 79.88-17.25Q79.70-17 78.97-15.10Q78.25-13.20 77.70-11.80Q77.15-10.40 76.55-8.65L76.55-8.65Q75.80-6.10 75.30-5.50Q74.80-4.90 72.35-3.55L72.35-3.55Q71.25-2.95 70.10-2.48Q68.95-2 68.28-1.95Q67.60-1.90 67.55-2.10L67.55-2.10Q67.55-2.35 69.42-4.17Q71.30-6 72.70-7.20L72.70-7.20Q73.35-7.75 73.70-8.38Q74.05-9 74.60-10.75L74.60-10.75Q75.05-11.90 75.22-12.55Q75.40-13.20 75.50-13.63Q75.60-14.05 75.55-14.20Q75.50-14.35 75.30-14.35L75.30-14.35Q75.10-14.35 73.50-13.25Q71.90-12.15 70.55-11.43Q69.20-10.70 68.25-9.70L68.25-9.70L67.20-8.65L66.75-9.30Q66.35-9.95 65.65-10.65L65.65-10.65Q65-11.25 65.05-11.78Q65.10-12.30 65.80-13.20L65.80-13.20Q66.20-13.70 66.38-13.78Q66.55-13.85 67-13.65L67-13.65Q67.55-13.30 67.90-13.45L67.90-13.45Q68.40-13.65 71.08-18.55Q73.75-23.45 73.75-24.20L73.75-24.20Q73.75-24.50 73.35-24.35L73.35-24.35Q72.35-24.15 70.58-24.88Q68.80-25.60 68.80-26.25L68.80-26.25Q68.80-26.40 69.83-26.78Q70.85-27.15 71.65-27.30L71.65-27.30Q73-27.55 75.47-28.55Q77.95-29.55 78.20-29.95L78.20-29.95Q78.40-30.30 79.15-30.60L79.15-30.60ZM63.15-28.85Q65.80-32.35 66.53-32.75Q67.25-33.15 68.40-32L68.40-32Q69.30-31 69.30-30.75Q69.30-30.50 66.22-27.40Q63.15-24.30 61.10-21.90L61.10-21.90Q59.55-20 57.95-18.32Q56.35-16.65 56.15-16.65L56.15-16.65Q55.90-16.65 53.98-14.88Q52.05-13.10 51.95-13.20L51.95-13.20Q51.65-13.50 54.02-17.03Q56.40-20.55 58.60-23L58.60-23Q60.05-24.85 63.15-28.85L63.15-28.85ZM94.05-35Q94.65-35.20 94.95-35.18Q95.25-35.15 96.15-34.80L96.15-34.80Q97.20-34.30 97.70-33.15L97.70-33.15Q98.05-32.45 98.10-31.83Q98.15-31.20 97.90-29.30L97.90-29.30Q97.45-23.95 97.35-8.75L97.35-8.75Q97.20 5.05 97.15 5.20L97.15 5.20Q96.95 5.40 96.15 4.90Q95.35 4.40 94.65 3.70L94.65 3.70Q93.25 2.30 94 2.20L94 2.20Q94.15 2.10 94.40 2.10L94.40 2.10Q95.10 2.10 95.25 1.98Q95.40 1.85 95.45 0.85L95.45 0.85Q95.60 0 95.65-4.98Q95.70-9.95 95.60-12.95L95.60-12.95Q95.55-14.75 95.28-18.25Q95-21.75 94.70-25.93Q94.40-30.10 93.85-32.05L93.85-32.05Q93.35-33.65 93.40-34.23Q93.45-34.80 94.05-35L94.05-35ZM104.20-1.30Q104.50-1.80 105.58-1.78Q106.65-1.75 107.70-1.20L107.70-1.20Q108.75-0.70 112.55-0.55L112.55-0.55Q118.85-0.35 120.85-0.75L120.85-0.75Q123.10-1.20 126.67-0.88Q130.25-0.55 132.20 0.20L132.20 0.20Q134.60 1.15 142.45 0.65L142.45 0.65Q144.80 0.50 145.38 0.53Q145.95 0.55 145.95 0.85L145.95 0.85Q145.95 1.25 146.20 1.25L146.20 1.25Q146.50 1.25 146.57 1.48Q146.65 1.70 146.53 1.98Q146.40 2.25 146.15 2.45L146.15 2.45Q145.60 3 144.30 3Q143 3 140.10 3.35L140.10 3.35Q138 3.65 137.30 3.63Q136.60 3.60 134.65 3.15L134.65 3.15Q132 2.55 130.35 1.88Q128.70 1.20 127.45 0.85L127.45 0.85Q126.20 0.50 124.03 0.50Q121.85 0.50 120.50 0.85L120.50 0.85Q119.10 1.20 115.83 1.35Q112.55 1.50 111.85 1.75L111.85 1.75Q110.80 2.10 108.47 1.48Q106.15 0.85 104.65-0.25L104.65-0.25Q104.15-0.60 104.08-0.78Q104-0.95 104.20-1.30L104.20-1.30ZM103.65-17Q103.85-17.50 104.10-17.57Q104.35-17.65 105.10-17.40L105.10-17.40Q105.70-17.20 106.05-16.23Q106.40-15.25 106.25-14.05L106.25-14.05Q106.10-12.80 106.38-11.90Q106.65-11 106.75-10.35L106.75-10.35Q106.95-9.45 108-8.40Q109.05-7.35 110.35-6.80L110.35-6.80Q113.45-5.40 113.45-4.40L113.45-4.40Q113.45-3.75 113.75-3.65L113.75-3.65Q114.10-3.40 113.95-3.05Q113.80-2.70 113.30-2.50L113.30-2.50Q112.70-2.30 112.10-2.65Q111.50-3 111.40-2.90Q111.30-2.80 110.47-3.58Q109.65-4.35 109.75-4.45L109.75-4.45Q109.90-4.70 108.70-5.50L108.70-5.50Q107.10-6.65 105.80-8.85Q104.50-11.05 104.15-13.30L104.15-13.30Q103.85-14.95 103.58-15.65Q103.30-16.35 103.65-17L103.65-17ZM106.25-25.35Q105.45-26.25 105.42-26.68Q105.40-27.10 106.10-27.50Q106.80-27.90 107.30-27.80L107.30-27.80Q108.40-27.45 108.75-27.10Q109.10-26.75 109.65-25.55L109.65-25.55Q110.85-22.95 110.15-22.90L110.15-22.90Q109.80-22.90 108.70-22.80L108.70-22.80Q107.80-22.75 107.47-22.93Q107.15-23.10 107.15-23.80L107.15-23.80Q107.15-24.20 106.25-25.35L106.25-25.35ZM123.75-31.05Q126.60-31.65 127.17-31.68Q127.75-31.70 128.15-31.40L128.15-31.40Q129-30.80 127.05-29.60L127.05-29.60Q126.55-29.30 125.90-28.95L125.90-28.95Q123.60-27.70 123.28-27.33Q122.95-26.95 122.60-26.95Q122.25-26.95 121.15-25.90Q120.05-24.85 120.05-25.15Q120.05-25.45 119.45-25.20L119.45-25.20Q119.10-25 118.80-25.13Q118.50-25.25 117.70-26.15L117.70-26.15Q116.45-27.45 115.85-27.45L115.85-27.45Q115.25-27.45 115.22-27.65Q115.20-27.85 115.55-28.75L115.55-28.75Q115.90-29.90 116.35-30.13Q116.80-30.35 118.55-30.35L118.55-30.35Q120.65-30.45 123.75-31.05L123.75-31.05ZM129.95-30.45Q133.20-33.65 133.57-33.55Q133.95-33.45 134.75-33.30L134.75-33.30Q135.55-33.15 136.20-32.60Q136.85-32.05 136.95-31.30L136.95-31.30Q137.10-30.50 136.45-29.98Q135.80-29.45 135.55-29.70Q135.30-29.95 134.85-29.95L134.85-29.95Q134.45-29.95 132.90-28.93Q131.35-27.90 130.25-26.95L130.25-26.95Q129-25.75 129.25-25.40Q129.50-25.05 131.60-25.05L131.60-25.05Q133.25-25.05 133.85-24.70Q134.45-24.35 135.30-22.95L135.30-22.95Q135.80-22.20 135.82-21.95Q135.85-21.70 135.50-21.15L135.50-21.15Q134.50-19.50 134.45-8.55L134.45-8.55Q134.40 0.20 133.90 0.20L133.90 0.20Q133.60 0.20 133.25-0.60L133.25-0.60Q132.85-1.55 132.22-1.93Q131.60-2.30 130.85-3.55Q130.10-4.80 129.95-5.65L129.95-5.65Q129.75-6.55 129.93-6.55Q130.10-6.55 130.95-5.80L130.95-5.80Q132.20-4.70 132.40-5.30L132.40-5.30Q132.65-5.80 132.55-7.90L132.55-7.90Q132.50-10.85 132.43-10.85Q132.35-10.85 130.93-10.45Q129.50-10.05 128.65-10.05L128.65-10.05Q127.30-10.05 127.30-7.90L127.30-7.90Q127.30-7.05 127.05-6.60Q126.80-6.15 126.70-5.75L126.70-5.75Q126.60-5.40 126.47-5.40Q126.35-5.40 126-5.60L126-5.60Q125.40-5.95 125.35-7.63Q125.30-9.30 125.08-9.30Q124.85-9.30 123.72-8.93Q122.60-8.55 121.65-8.30L121.65-8.30Q120.95-8.25 120.78-8.05Q120.60-7.85 120.45-7.05L120.45-7.05Q120.25-5.95 120.17-4.73Q120.10-3.50 119.95-3.35L119.95-3.35Q119.90-3.35 119.75-3.53Q119.60-3.70 119.40-4.03Q119.20-4.35 119-4.70L119-4.70Q118.40-5.75 118.35-6.13Q118.30-6.50 118.50-7.40L118.50-7.40Q118.85-8.65 118.67-13.95Q118.50-19.25 118-20.35L118-20.35Q117.50-21.40 117.50-21.65Q117.50-21.90 118-22.20L118-22.20Q118.55-22.45 119.25-22.15Q119.95-21.85 121.53-22.55Q123.10-23.25 124.33-23.65Q125.55-24.05 125.70-24.23Q125.85-24.40 125.17-25.18Q124.50-25.95 124.50-26.60L124.50-26.60Q124.50-27 124.67-27.10Q124.85-27.20 125.65-27.20L125.65-27.20Q126.40-27.20 127-27.63Q127.60-28.05 129.95-30.45L129.95-30.45ZM132.05-22.30Q131.80-22.60 131.57-22.60Q131.35-22.60 130.40-22.30L130.40-22.30Q129.35-21.95 127.85-21.75L127.85-21.75Q125.70-21.50 124.50-20.50L124.50-20.50Q124.10-20.15 122.50-19.60L122.50-19.60L120.85-18.95L120.75-17.50Q120.50-16 120.65-15.90L120.65-15.90Q120.75-15.75 122.90-16.38Q125.05-17 125.20-17.20L125.20-17.20Q125.35-17.40 125.35-18.40L125.35-18.40Q125.35-20.15 127.30-19.65L127.30-19.65Q128-19.45 128.15-19.30Q128.30-19.15 128.20-18.60Q128.10-18.05 128.13-17.95Q128.15-17.85 128.55-18L128.55-18Q129.20-18.20 130.53-18.30Q131.85-18.40 132.20-18L132.20-18Q132.55-17.55 132.55-18.20L132.55-18.20Q132.55-18.60 132.50-19.75L132.50-19.75Q132.35-21.95 132.05-22.30L132.05-22.30ZM132.35-14.70Q132.50-16.60 132.30-16.60L132.30-16.60Q132.15-16.60 131.95-16.35L131.95-16.35Q131.70-16.15 129.70-15.80L129.70-15.80Q128.20-15.60 127.92-15.43Q127.65-15.25 127.47-14.65Q127.30-14.05 127.30-13.50Q127.30-12.95 127.45-12.60Q127.60-12.25 127.80-12.30L127.80-12.30Q128.15-12.45 130.20-12.60L130.20-12.60L132.20-12.75L132.35-14.70ZM125-13Q125-14.35 124.85-14.40L124.85-14.40Q124.60-14.60 123.20-14.20Q121.80-13.80 121.30-13.35L121.30-13.35Q120.65-12.85 120.70-11.70Q120.75-10.55 120.85-10.43Q120.95-10.30 122.95-11L122.95-11L125-11.70L125-13Z" transform="translate(-2.55, 37.15625)"></path></g> <!----> <!----> <!----> <!----> <!----> <!----> <g fill="#020202" hollow-target="custom" transform="translate(147.052001953125,0)"></g></g> 

</g></g></g></svg>